<svg width="74" height="74" viewBox="0 0 74 74" fill="none" xmlns="http://www.w3.org/2000/svg">
<path d="M4.625 26.825C4.625 19.0543 4.625 15.1689 6.13728 12.2009C7.46753 9.59013 9.59013 7.46753 12.2009 6.13728C15.1689 4.625 19.0543 4.625 26.825 4.625H47.175C54.9457 4.625 58.8311 4.625 61.7991 6.13728C64.4099 7.46753 66.5325 9.59013 67.8627 12.2009C69.375 15.1689 69.375 19.0543 69.375 26.825V47.175C69.375 54.9457 69.375 58.8311 67.8627 61.7991C66.5325 64.4099 64.4099 66.5325 61.7991 67.8627C58.8311 69.375 54.9457 69.375 47.175 69.375H26.825C19.0543 69.375 15.1689 69.375 12.2009 67.8627C9.59013 66.5325 7.46753 64.4099 6.13728 61.7991C4.625 58.8311 4.625 54.9457 4.625 47.175V26.825Z" fill="white"/>
<path d="M54.6585 21.5987C51.3652 20.1511 47.8439 19.099 44.1626 18.5C43.7103 19.268 43.1822 20.3008 42.8181 21.1226C38.9046 20.5696 35.0271 20.5696 31.1857 21.1226C30.8216 20.3008 30.2813 19.268 29.8253 18.5C26.1399 19.099 22.6146 20.1549 19.3214 21.6064C12.6789 31.0369 10.8782 40.2332 11.7785 49.2988C16.1842 52.3898 20.4538 54.2674 24.6513 55.4961C25.6877 54.1561 26.612 52.7316 27.4084 51.2302C25.8918 50.6888 24.4393 50.0208 23.0667 49.245C23.4309 48.9917 23.787 48.7267 24.1311 48.4541C32.5023 52.1325 41.5976 52.1325 49.8688 48.4541C50.2168 48.7267 50.573 48.9917 50.9331 49.245C49.5566 50.0245 48.1001 50.6926 46.5834 51.2341C47.3798 52.7316 48.3001 54.16 49.3404 55.5C53.542 54.2713 57.8156 52.3937 62.2213 49.2988C63.2777 38.7894 60.4166 29.6776 54.6585 21.5987ZM28.5488 43.7235C26.0358 43.7235 23.9751 41.5194 23.9751 38.8355C23.9751 36.1514 25.9918 33.9436 28.5488 33.9436C31.1057 33.9436 33.1664 36.1476 33.1224 38.8355C33.1265 41.5194 31.1057 43.7235 28.5488 43.7235ZM45.4511 43.7235C42.9381 43.7235 40.8773 41.5194 40.8773 38.8355C40.8773 36.1514 42.8941 33.9436 45.4511 33.9436C48.0079 33.9436 50.0688 36.1476 50.0248 38.8355C50.0248 41.5194 48.0079 43.7235 45.4511 43.7235Z" fill="#5865F2"/>
</svg>
