<svg width="75" height="22" viewBox="0 0 75 22" fill="none" xmlns="http://www.w3.org/2000/svg">
<path d="M32.0956 11.3243C32.0956 14.4203 29.3169 16.7017 25.9068 16.7017C22.4967 16.7017 19.718 14.4203 19.718 11.3243C19.718 8.20656 22.4967 5.94702 25.9068 5.94702C29.3169 5.94702 32.0956 8.20656 32.0956 11.3243ZM29.3865 11.3243C29.3865 9.38967 27.776 8.06595 25.9068 8.06595C24.0377 8.06595 22.4272 9.38967 22.4272 11.3243C22.4272 13.2396 24.0377 14.5827 25.9068 14.5827C27.776 14.5827 29.3865 13.2372 29.3865 11.3243Z" fill="#EA4335"/>
<path d="M45.4467 11.3243C45.4467 14.4203 42.668 16.7017 39.2579 16.7017C35.8478 16.7017 33.0691 14.4203 33.0691 11.3243C33.0691 8.20899 35.8478 5.94702 39.2579 5.94702C42.668 5.94702 45.4467 8.20656 45.4467 11.3243ZM42.7375 11.3243C42.7375 9.38967 41.1271 8.06595 39.2579 8.06595C37.3887 8.06595 35.7783 9.38967 35.7783 11.3243C35.7783 13.2396 37.3887 14.5827 39.2579 14.5827C41.1271 14.5827 42.7375 13.2372 42.7375 11.3243Z" fill="#FBBC05"/>
<path d="M58.2417 6.27189V15.9259C58.2417 19.897 55.5548 21.519 52.3783 21.519C49.3882 21.519 47.5886 19.7758 46.9099 18.3503L49.2686 17.4944C49.6886 18.3697 50.7178 19.4024 52.3755 19.4024C54.4088 19.4024 55.6688 18.309 55.6688 16.2507V15.4773H55.5742C54.9679 16.1295 53.7996 16.6992 52.3255 16.6992C49.2408 16.6992 46.4148 14.3573 46.4148 11.3437C46.4148 8.30839 49.2408 5.94702 52.3255 5.94702C53.7969 5.94702 54.9651 6.51676 55.5742 7.14952H55.6688V6.27432H58.2417V6.27189ZM55.8607 11.3437C55.8607 9.45028 54.4116 8.06595 52.5674 8.06595C50.6983 8.06595 49.1323 9.45028 49.1323 11.3437C49.1323 13.2178 50.6983 14.5827 52.5674 14.5827C54.4116 14.5827 55.8607 13.2178 55.8607 11.3437Z" fill="#4285F4"/>
<path d="M62.4832 0.613403V16.372H59.8408V0.613403H62.4832Z" fill="#34A853"/>
<path d="M72.7803 13.0941L74.8831 14.316C74.2044 15.1912 72.5689 16.6992 69.7429 16.6992C66.2382 16.6992 63.6208 14.3379 63.6208 11.3219C63.6208 8.12412 66.2605 5.94458 69.4397 5.94458C72.6412 5.94458 74.2072 8.16533 74.719 9.36541L74.9999 9.97636L66.7528 12.9535C67.3842 14.0324 68.3661 14.5827 69.7429 14.5827C71.1225 14.5827 72.0793 13.9912 72.7803 13.0941ZM66.3078 11.1595L71.8207 9.16418C71.5175 8.49263 70.6052 8.02472 69.5315 8.02472C68.1547 8.02472 66.2382 9.08418 66.3078 11.1595Z" fill="#EA4335"/>
<path d="M9.71573 9.9255V7.64414H18.5358C18.6221 8.04174 18.6666 8.51207 18.6666 9.0212C18.6666 10.7328 18.1297 12.8493 16.3996 14.3573C14.7168 15.8847 12.5668 16.6993 9.71851 16.6993C4.43925 16.6993 0 12.9511 0 8.34964C0 3.74812 4.43925 0 9.71851 0C12.6391 0 14.7196 0.998853 16.2828 2.30076L14.4359 3.91056C13.315 2.99414 11.7963 2.28136 9.71573 2.28136C5.86059 2.28136 2.84546 4.98942 2.84546 8.34964C2.84546 11.7099 5.86059 14.4179 9.71573 14.4179C12.2163 14.4179 13.6404 13.5427 14.5527 12.7475C15.2926 12.1026 15.7794 11.1813 15.9713 9.92307L9.71573 9.9255Z" fill="#4285F4"/>
</svg>
