<svg width="1929" height="1076" viewBox="0 0 1929 1076" fill="none" xmlns="http://www.w3.org/2000/svg">
<path d="M200.044 227.359C264.469 204.389 218.851 154.022 280.29 81.349C341.729 8.67599 467.86 -29.8834 436.982 -88.2839C406.105 -146.684 289.334 -76.2443 168.007 -109.723C46.6805 -143.202 47.2861 -253.614 -48.3153 -222.199C-143.917 -190.783 -193.789 149.213 -119.682 158.916C-45.5742 168.62 -37.8923 78.5198 3.97784 93.0449C45.848 107.57 23.6239 151.361 15.5349 183.313C7.44581 215.266 22.5376 229.033 32.6957 233.734C42.8538 238.435 61.4513 242.301 95.0302 221.295C160.741 180.187 155.296 243.557 200.044 227.359Z" fill="url(#paint0_linear_0_1)" stroke="white" stroke-linecap="round" stroke-linejoin="round"/>
<g clip-path="url(#clip0_0_1)">
<path d="M1932.27 366.061C2013.78 373.247 2002.34 284.214 2115.32 227.113C2228.3 170.013 2383.42 192.17 2392.55 101.276C2401.68 10.3818 2233.95 33.6377 2133.74 -76.5856C2033.53 -186.809 2110.81 -325.575 1991.71 -339.609C1872.62 -353.643 1585.79 46.7314 1654.46 100.519C1723.13 154.307 1793.51 45.1006 1826.03 86.8827C1858.55 128.665 1783.21 182.9 1764.58 225.391C1745.95 267.882 1734.21 314.462 1829.63 299.525C1925.04 284.588 1875.49 361.372 1932.27 366.061Z" fill="url(#paint1_linear_0_1)" stroke="white" stroke-width="0.9996"/>
</g>
<g clip-path="url(#clip1_0_1)">
<path d="M27.8214 456.997C-12.4596 431.314 -25.5305 479.463 -95.6351 477.801C-165.74 476.14 -240.6 422.976 -264.621 466.498C-288.643 510.02 -197.651 543.615 -169.694 626.487C-141.736 709.36 -210.902 758.673 -152.795 797.984C-94.6884 837.294 137.629 712.278 113.845 666.491C90.0605 620.703 30.7241 656.927 22.9309 626.991C15.1377 597.055 51.4225 589.785 74.6252 579.938C97.8278 570.091 100.345 555.464 99.1887 547.672C98.0327 539.88 92.9574 527.746 66.3231 518.423C14.2023 500.179 55.9523 474.725 27.8214 456.997Z" fill="url(#paint2_linear_0_1)" stroke="white" stroke-linecap="round" stroke-linejoin="round"/>
</g>
<path d="M1.00012 864.5C1 921.813 448.94 1024.46 964.5 1021C1480.06 1017.54 1708.65 815.859 1928 830.268C1928 859.733 1928 1021 1928 1021L964.5 1040L1.00012 1021C1.00012 1021 1.0003 779.342 1.00012 864.5Z" fill="#00A5E9" fill-opacity="0.1"/>
<path d="M1 843C0.99988 900.313 459.44 1036.96 975 1033.5C1490.56 1030.04 1708.65 763.328 1928 777.737C1928 807.202 1928 968.469 1928 968.469L964 1067.5L1 968.469C1 968.469 1.00018 757.842 1 843Z" fill="#00A5E9" fill-opacity="0.1" stroke="white"/>
<path d="M1.0001 925.998C1.00015 909.445 441.939 1048.72 957.5 1046C1473.06 1043.28 1708.65 914.666 1928 925.998C1928 949.171 1928 1076 1928 1076H1.0001C1.0001 1076 0.999876 992.971 1.0001 925.998Z" fill="url(#paint3_linear_0_1)"/>
<defs>
<linearGradient id="paint0_linear_0_1" x1="292.275" y1="-122.486" x2="-108.843" y2="847.93" gradientUnits="userSpaceOnUse">
<stop stop-color="#00A5E9"/>
<stop offset="1" stop-color="#00FDE0"/>
</linearGradient>
<linearGradient id="paint1_linear_0_1" x1="1883.99" y1="353.505" x2="2267.48" y2="-1094.74" gradientUnits="userSpaceOnUse">
<stop stop-color="#00A5E9"/>
<stop offset="1" stop-color="#00FDE0"/>
</linearGradient>
<linearGradient id="paint2_linear_0_1" x1="-227.7" y1="562.765" x2="551.402" y2="411.455" gradientUnits="userSpaceOnUse">
<stop stop-color="#00A5E9"/>
<stop offset="1" stop-color="#00FDE0"/>
</linearGradient>
<linearGradient id="paint3_linear_0_1" x1="964.5" y1="760.848" x2="964.5" y2="1076" gradientUnits="userSpaceOnUse">
<stop stop-color="#00FDE0"/>
<stop offset="1" stop-color="#00A5E9"/>
</linearGradient>
<clipPath id="clip0_0_1">
<rect width="872.361" height="854.391" fill="white" transform="translate(2060.6 658.658) rotate(-137.154)"/>
</clipPath>
<clipPath id="clip1_0_1">
<rect width="438.145" height="379.284" fill="white" transform="translate(-117.264 879.949) rotate(-125.769)"/>
</clipPath>
</defs>
</svg>
