<svg width="1920" height="1080" viewBox="0 0 1920 1080" fill="none" xmlns="http://www.w3.org/2000/svg">
<path d="M68.0443 135.359C132.469 112.389 86.8514 62.0221 148.29 -10.651C209.729 -83.324 335.86 -121.883 304.982 -180.284C274.105 -238.684 157.334 -168.244 36.0071 -201.723C-85.3195 -235.202 -84.7138 -345.614 -180.315 -314.198C-275.917 -282.783 -325.789 57.2126 -251.682 66.9164C-177.574 76.6202 -169.892 -13.4802 -128.022 1.04492C-86.152 15.5701 -108.376 59.3614 -116.465 91.3135C-124.554 123.266 -109.462 137.033 -99.3042 141.734C-89.1461 146.435 -70.5486 150.301 -36.9698 129.295C28.7407 88.187 23.2959 151.557 68.0443 135.359Z" fill="url(#paint0_linear_0_1)" stroke="white" stroke-linecap="round" stroke-linejoin="round"/>
<g clip-path="url(#clip0_0_1)">
<path d="M1887.83 -67.2772C1861.51 -63.4316 1870.38 -35.5644 1837.82 -8.59209C1805.27 18.3802 1754.66 22.9613 1757.1 52.9857C1759.54 83.0101 1811.49 62.8192 1849.82 90.8119C1888.15 118.805 1871.74 169.432 1910.42 164.954C1949.1 160.476 2016.73 9.57323 1991.75 -2.59175C1966.76 -14.7567 1950.81 25.8096 1938.01 14.785C1925.22 3.76034 1945.98 -19.4402 1949.4 -34.562C1952.83 -49.6837 1953.82 -65.6041 1924.37 -53.5676C1894.92 -41.5311 1906.16 -70.0583 1887.83 -67.2772Z" fill="url(#paint1_linear_0_1)" stroke="white" stroke-width="0.9996"/>
</g>
<g clip-path="url(#clip1_0_1)">
<path d="M3.22015 809.188C-40.3112 798.33 -36.3978 844.325 -98.4149 863.156C-160.432 881.987 -243.068 857.043 -250.237 902.151C-257.405 947.259 -166.87 950.379 -115.883 1014.94C-64.8952 1079.51 -109.809 1142.76 -46.2907 1160.41C17.2277 1178.05 181.059 1001.22 145.575 967.959C110.091 934.7 69.6183 983.629 53.2224 959.639C36.8266 935.65 66.3289 918.775 83.5343 903.427C100.74 888.079 98.2756 874.527 94.7732 868.031C91.2708 861.534 82.9441 852.364 56.6065 851.899C5.06647 850.988 33.5548 816.59 3.22015 809.188Z" fill="url(#paint2_linear_0_1)" stroke="white" stroke-linecap="round" stroke-linejoin="round"/>
</g>
<g clip-path="url(#clip2_0_1)">
<path d="M2080.62 1075.32C2083.45 1030.54 2038.91 1042.69 2009.21 985.08C1979.51 927.475 1989.14 841.695 1943.48 842.777C1897.82 843.859 1911.07 933.472 1856.76 995.265C1802.45 1057.06 1732.14 1024.28 1726.23 1089.94C1720.32 1155.6 1923.8 1284.87 1950.12 1243.97C1976.43 1203.07 1921.01 1172.08 1941.65 1151.63C1962.29 1131.18 1984.21 1157.15 2002.4 1171.31C2020.6 1185.46 2033.49 1180.6 2039.25 1175.98C2045.01 1171.36 2052.52 1161.52 2048.23 1135.53C2039.84 1084.67 2078.81 1106.49 2080.62 1075.32Z" fill="url(#paint3_linear_0_1)" stroke="white" stroke-linecap="round" stroke-linejoin="round"/>
</g>
<defs>
<linearGradient id="paint0_linear_0_1" x1="160.275" y1="-214.486" x2="-240.843" y2="755.93" gradientUnits="userSpaceOnUse">
<stop stop-color="#00A5E9"/>
<stop offset="1" stop-color="#00FDE0"/>
</linearGradient>
<linearGradient id="paint1_linear_0_1" x1="1903.92" y1="-66.877" x2="1889.27" y2="430.16" gradientUnits="userSpaceOnUse">
<stop stop-color="#00A5E9"/>
<stop offset="1" stop-color="#00FDE0"/>
</linearGradient>
<linearGradient id="paint2_linear_0_1" x1="-187.11" y1="975.864" x2="438.708" y2="602.353" gradientUnits="userSpaceOnUse">
<stop stop-color="#00A5E9"/>
<stop offset="1" stop-color="#00FDE0"/>
</linearGradient>
<linearGradient id="paint3_linear_0_1" x1="1882.36" y1="918.16" x2="2362.58" y2="1466.38" gradientUnits="userSpaceOnUse">
<stop stop-color="#00A5E9"/>
<stop offset="1" stop-color="#00FDE0"/>
</linearGradient>
<clipPath id="clip0_0_1">
<rect width="277.835" height="287.1" fill="white" transform="translate(1829.85 -152) rotate(30.9959)"/>
</clipPath>
<clipPath id="clip1_0_1">
<rect width="413.26" height="346.373" fill="white" transform="translate(11.0503 1221.98) rotate(-144.912)"/>
</clipPath>
<clipPath id="clip2_0_1">
<rect width="413.26" height="346.373" fill="white" transform="translate(1676 1157.45) rotate(-65.299)"/>
</clipPath>
</defs>
</svg>
