<svg width="35" height="36" viewBox="0 0 35 36" fill="none" xmlns="http://www.w3.org/2000/svg">
<path d="M31.5 7.5H26.25V3.75C26.25 1.66875 24.6925 0 22.75 0H12.25C10.3075 0 8.75 1.66875 8.75 3.75V7.5H3.5C1.5575 7.5 0 9.16875 0 11.25V31.875C0 33.9563 1.5575 35.625 3.5 35.625H31.5C33.4425 35.625 35 33.9563 35 31.875V11.25C35 9.16875 33.4425 7.5 31.5 7.5ZM12.25 3.75H22.75V7.5H12.25V3.75ZM31.5 31.875H3.5V28.125H31.5V31.875ZM31.5 22.5H3.5V11.25H8.75V15H12.25V11.25H22.75V15H26.25V11.25H31.5V22.5Z" fill="#00A5E9"/>
</svg>
